<svg width="200" height="200" viewBox="0 0 200 200" fill="none" xmlns="http://www.w3.org/2000/svg">
<path d="M191.613 28.4636C199.049 24.8113 202.116 15.8227 198.464 8.387C194.811 0.951266 185.823 -2.11585 178.387 1.53641L191.613 28.4636ZM15 98.5L8.387 85.0364C3.28725 87.5413 0.0404794 92.7125 0.000373698 98.3941C-0.039732 104.076 3.13371 109.292 8.19759 111.869L15 98.5ZM178.198 198.369C185.581 202.126 194.612 199.186 198.369 191.802C202.126 184.419 199.186 175.388 191.802 171.631L178.198 198.369ZM178.387 1.53641L8.387 85.0364L21.613 111.964L191.613 28.4636L178.387 1.53641ZM8.19759 111.869L178.198 198.369L191.802 171.631L21.8024 85.1311L8.19759 111.869Z" fill="#50667B" fill-opacity="0.5"/>
</svg>
