<svg width="50" height="200" viewBox="0 0 50 200" fill="none" xmlns="http://www.w3.org/2000/svg">
<path d="M49.6168 6.91963C50.677 4.36983 49.4694 1.44336 46.9196 0.383179C44.3698 -0.677001 41.4434 0.530574 40.3832 3.08037L49.6168 6.91963ZM5.5 100L0.883179 98.0804C0.372274 99.3091 0.372274 100.691 0.883179 101.92L5.5 100ZM40.3832 196.92C41.4434 199.469 44.3698 200.677 46.9196 199.617C49.4694 198.557 50.677 195.63 49.6168 193.08L40.3832 196.92ZM40.3832 3.08037L0.883179 98.0804L10.1168 101.92L49.6168 6.91963L40.3832 3.08037ZM0.883179 101.92L40.3832 196.92L49.6168 193.08L10.1168 98.0804L0.883179 101.92Z" fill="#50667B" fill-opacity="0.5"/>
</svg>
