<svg width="300" height="200" viewBox="0 0 300 200" fill="none" xmlns="http://www.w3.org/2000/svg">
<path d="M26.7467 5.67177C21.5948 -0.815735 12.1593 -1.8985 5.67177 3.25334C-0.815735 8.40518 -1.8985 17.8407 3.25334 24.3282L26.7467 5.67177ZM150 185L138.253 194.328C141.099 197.911 145.424 200 150 200C154.576 200 158.901 197.911 161.747 194.328L150 185ZM296.747 24.3282C301.899 17.8407 300.816 8.40518 294.328 3.25334C287.841 -1.8985 278.405 -0.815735 273.253 5.67177L296.747 24.3282ZM3.25334 24.3282L138.253 194.328L161.747 175.672L26.7467 5.67177L3.25334 24.3282ZM161.747 194.328L296.747 24.3282L273.253 5.67177L138.253 175.672L161.747 194.328Z" fill="#50667B" fill-opacity="0.5"/>
</svg>
