<svg width="502" height="134" viewBox="0 0 502 134" fill="none" xmlns="http://www.w3.org/2000/svg">
<path d="M333 44.6406V70H321.141V1.75H347.25C354.875 1.75 360.922 3.73437 365.391 7.70312C369.891 11.6719 372.141 16.9219 372.141 23.4531C372.141 30.1406 369.938 35.3438 365.531 39.0625C361.156 42.7812 355.016 44.6406 347.109 44.6406H333ZM333 35.125H347.25C351.469 35.125 354.688 34.1406 356.906 32.1719C359.125 30.1719 360.234 27.2969 360.234 23.5469C360.234 19.8594 359.109 16.9219 356.859 14.7344C354.609 12.5156 351.516 11.375 347.578 11.3125H333V35.125ZM407.625 43.7031H394.406V70H382.547V1.75H406.547C414.422 1.75 420.5 3.51563 424.781 7.04688C429.062 10.5781 431.203 15.6875 431.203 22.375C431.203 26.9375 430.094 30.7656 427.875 33.8594C425.688 36.9219 422.625 39.2812 418.688 40.9375L434.016 69.3906V70H421.312L407.625 43.7031ZM394.406 34.1875H406.594C410.594 34.1875 413.719 33.1875 415.969 31.1875C418.219 29.1562 419.344 26.3906 419.344 22.8906C419.344 19.2344 418.297 16.4063 416.203 14.4062C414.141 12.4062 411.047 11.375 406.922 11.3125H394.406V34.1875ZM496.922 37.6562C496.922 44.3438 495.766 50.2188 493.453 55.2812C491.141 60.3125 487.828 64.1875 483.516 66.9062C479.234 69.5938 474.297 70.9375 468.703 70.9375C463.172 70.9375 458.234 69.5938 453.891 66.9062C449.578 64.1875 446.234 60.3281 443.859 55.3281C441.516 50.3281 440.328 44.5625 440.297 38.0312V34.1875C440.297 27.5312 441.469 21.6563 443.812 16.5625C446.188 11.4687 449.516 7.57812 453.797 4.89062C458.109 2.17188 463.047 0.8125 468.609 0.8125C474.172 0.8125 479.094 2.15625 483.375 4.84375C487.688 7.5 491.016 11.3438 493.359 16.375C495.703 21.375 496.891 27.2031 496.922 33.8594V37.6562ZM485.062 34.0938C485.062 26.5312 483.625 20.7344 480.75 16.7031C477.906 12.6719 473.859 10.6562 468.609 10.6562C463.484 10.6562 459.469 12.6719 456.562 16.7031C453.688 20.7031 452.219 26.375 452.156 33.7188V37.6562C452.156 45.1562 453.609 50.9531 456.516 55.0469C459.453 59.1406 463.516 61.1875 468.703 61.1875C473.953 61.1875 477.984 59.1875 480.797 55.1875C483.641 51.1875 485.062 45.3438 485.062 37.6562V34.0938Z" fill="#50667B"/>
<path d="M321.527 99.6992C321.527 93.793 322.91 89.082 325.676 85.5664C328.465 82.0273 332.156 80.2578 336.75 80.2578C341.086 80.2578 344.496 81.7695 346.98 84.793L347.367 80.9609H355.066V117.84C355.066 122.832 353.508 126.77 350.391 129.652C347.297 132.535 343.113 133.977 337.84 133.977C335.051 133.977 332.32 133.391 329.648 132.219C327 131.07 324.984 129.559 323.602 127.684L327.645 122.551C330.27 125.668 333.504 127.227 337.348 127.227C340.184 127.227 342.422 126.453 344.062 124.906C345.703 123.383 346.523 121.133 346.523 118.156V115.59C344.062 118.332 340.781 119.703 336.68 119.703C332.227 119.703 328.582 117.934 325.746 114.395C322.934 110.855 321.527 105.957 321.527 99.6992ZM330.035 100.438C330.035 104.258 330.809 107.27 332.355 109.473C333.926 111.652 336.094 112.742 338.859 112.742C342.305 112.742 344.859 111.266 346.523 108.312V91.5781C344.906 88.6953 342.375 87.2539 338.93 87.2539C336.117 87.2539 333.926 88.3672 332.355 90.5938C330.809 92.8203 330.035 96.1016 330.035 100.438ZM383.789 88.7656C382.664 88.5781 381.504 88.4844 380.309 88.4844C376.395 88.4844 373.758 89.9844 372.398 92.9844V119H363.855V80.9609H372.012L372.223 85.2148C374.285 81.9102 377.145 80.2578 380.801 80.2578C382.02 80.2578 383.027 80.4219 383.824 80.75L383.789 88.7656ZM410.859 119C410.484 118.273 410.156 117.09 409.875 115.449C407.156 118.285 403.828 119.703 399.891 119.703C396.07 119.703 392.953 118.613 390.539 116.434C388.125 114.254 386.918 111.559 386.918 108.348C386.918 104.293 388.418 101.188 391.418 99.0312C394.441 96.8516 398.754 95.7617 404.355 95.7617H409.594V93.2656C409.594 91.2969 409.043 89.7266 407.941 88.5547C406.84 87.3594 405.164 86.7617 402.914 86.7617C400.969 86.7617 399.375 87.2539 398.133 88.2383C396.891 89.1992 396.27 90.4297 396.27 91.9297H387.727C387.727 89.8438 388.418 87.8984 389.801 86.0938C391.184 84.2656 393.059 82.8359 395.426 81.8047C397.816 80.7734 400.477 80.2578 403.406 80.2578C407.859 80.2578 411.41 81.3828 414.059 83.6328C416.707 85.8594 418.066 89 418.137 93.0547V110.211C418.137 113.633 418.617 116.363 419.578 118.402V119H410.859ZM401.473 112.848C403.16 112.848 404.742 112.438 406.219 111.617C407.719 110.797 408.844 109.695 409.594 108.312V101.141H404.988C401.824 101.141 399.445 101.691 397.852 102.793C396.258 103.895 395.461 105.453 395.461 107.469C395.461 109.109 396 110.422 397.078 111.406C398.18 112.367 399.645 112.848 401.473 112.848ZM435.117 80.9609L435.363 84.9336C438.035 81.8164 441.691 80.2578 446.332 80.2578C451.418 80.2578 454.898 82.2031 456.773 86.0938C459.539 82.2031 463.43 80.2578 468.445 80.2578C472.641 80.2578 475.758 81.418 477.797 83.7383C479.859 86.0586 480.914 89.4805 480.961 94.0039V119H472.418V94.25C472.418 91.8359 471.891 90.0664 470.836 88.9414C469.781 87.8164 468.035 87.2539 465.598 87.2539C463.652 87.2539 462.059 87.7812 460.816 88.8359C459.598 89.8672 458.742 91.2266 458.25 92.9141L458.285 119H449.742V93.9688C449.625 89.4922 447.34 87.2539 442.887 87.2539C439.465 87.2539 437.039 88.6484 435.609 91.4375V119H427.066V80.9609H435.117Z" fill="#50667B"/>
<path d="M104.422 21.4575H68.9248V118H45.0479V21.4575H10.0283V2.11719H104.422V21.4575ZM161.01 75.5786H141.988V118H118.111V2.11719H161.169C174.859 2.11719 185.418 5.16813 192.846 11.27C200.275 17.3719 203.989 25.9941 203.989 37.1367C203.989 45.0426 202.264 51.6486 198.815 56.9546C195.42 62.2075 190.246 66.3993 183.295 69.5298L208.366 116.886V118H182.738L161.01 75.5786ZM141.988 56.2383H161.249C167.245 56.2383 171.888 54.7261 175.177 51.7017C178.467 48.6242 180.112 44.4059 180.112 39.0469C180.112 33.5817 178.547 29.2839 175.416 26.1533C172.339 23.0228 167.59 21.4575 161.169 21.4575H141.988V56.2383ZM309.923 2.11719V78.4438C309.923 91.1252 305.943 101.153 297.984 108.529C290.078 115.904 279.254 119.592 265.512 119.592C251.981 119.592 241.237 116.01 233.278 108.847C225.319 101.684 221.26 91.8415 221.101 79.3193V2.11719H244.978V78.603C244.978 86.1906 246.782 91.7354 250.39 95.2373C254.051 98.6862 259.091 100.411 265.512 100.411C278.936 100.411 285.754 93.3537 285.966 79.2397V2.11719H309.923Z" fill="#50667B"/>
</svg>