<svg width="184" height="152" viewBox="0 0 184 152" fill="none" xmlns="http://www.w3.org/2000/svg">
<path d="M126.5 2H122L116 3L110 5L105 8L99.5 12.5L95 18L92 23.5L89 30L88 38L87.5 46H83.5L77 45L71 44L66 42.5L58 39.5L52.5 37L45.5 33.5L39.5 29.5L34 26L28.5 21L24 17L18 10C17 8.83333 14.6 7.4 13 11C11.4 14.6 10.6667 16.8333 10.5 17.5L9 23V29L10 37.5L12.5 45L16 51L20 56.5L16.5 55L12.5 53.5C11.1667 52.6667 8.6 52 9 56C9.4 60 10.1667 64.6667 10.5 66.5L13 73L16 77.5L20.5 82.5L25 86.5L29.5 89.5L25 90C23.1667 89.8333 20.2 90.7 23 95.5C25.8 100.3 28.1667 103.833 29 105L33.5 110L39.5 114L46 116.5L52 117L47.5 120.5L41.5 124L34.5 126.5L27 129L19.5 130H10H4.5C2.66667 130.333 0.100001 131.8 4.5 135C8.9 138.2 12 139.333 13 139.5L21 143L31.5 146.5L44 149L60 150L77.5 149L85.5 147L94 144.5L101 141.5L110.5 137L117.5 132.5L125.5 126.5L131.5 121.5L138 114.5L144 107.5L149 99.5L155 87.5L159.5 76L162 66L164 52.5L164.5 41L174 33L181 24.5C182.333 22.3333 183.6 18.4 178 20C172.4 21.6 169.667 22 169 22L175 13.5L177 9C178 6.5 178.3 2.5 171.5 6.5C164.7 10.5 162.667 11.1667 162.5 11L155 13L145.5 7.5L136.5 3.5L126.5 2Z" fill="url(#paint0_linear)" stroke="black" stroke-width="3"/>
<defs>
<linearGradient id="paint0_linear" x1="92" y1="143" x2="83" y2="46.5" gradientUnits="userSpaceOnUse">
<stop offset="0.263201" stop-color="#FFC700"/>
<stop offset="0.995848" stop-color="#0075FF"/>
</linearGradient>
</defs>
</svg>
