<svg width="300" height="200" viewBox="0 0 300 200" fill="none" xmlns="http://www.w3.org/2000/svg">
<path d="M273.253 194.328C278.405 200.816 287.841 201.899 294.328 196.747C300.816 191.595 301.899 182.159 296.747 175.672L273.253 194.328ZM150 15L161.747 5.67177C158.901 2.0885 154.576 0 150 0C145.424 0 141.099 2.0885 138.253 5.67177L150 15ZM3.25334 175.672C-1.8985 182.159 -0.815735 191.595 5.67177 196.747C12.1593 201.899 21.5948 200.816 26.7467 194.328L3.25334 175.672ZM296.747 175.672L161.747 5.67177L138.253 24.3282L273.253 194.328L296.747 175.672ZM138.253 5.67177L3.25334 175.672L26.7467 194.328L161.747 24.3282L138.253 5.67177Z" fill="#50667B" fill-opacity="0.5"/>
</svg>
